<svg width="162" height="18" viewBox="0 0 162 18" fill="none" xmlns="http://www.w3.org/2000/svg">
<path d="M8.27472 14.0462H0.390718V1.2842H8.27472V3.3002H2.55072V6.6842H7.73472V8.6462H2.55072V12.0302H8.27472V14.0462ZM12.5815 14.0462H10.5115V5.2802H12.5095V6.3962C12.7495 5.9642 13.1095 5.6282 13.5895 5.3882C14.0815 5.1482 14.5855 5.0282 15.1015 5.0282C15.6895 5.0282 16.2175 5.1602 16.6855 5.4242C17.1535 5.6882 17.5015 6.0722 17.7295 6.5762C18.3415 5.5442 19.2895 5.0282 20.5735 5.0282C21.4375 5.0282 22.1695 5.3102 22.7695 5.8742C23.3695 6.4382 23.6695 7.2662 23.6695 8.3582V14.0462H21.6535V8.7002C21.6535 8.1602 21.5095 7.7282 21.2215 7.4042C20.9455 7.0682 20.5255 6.9002 19.9615 6.9002C19.4215 6.9002 18.9835 7.0862 18.6475 7.4582C18.3115 7.8302 18.1435 8.2922 18.1435 8.8442V14.0462H16.0915V8.7002C16.0915 8.1602 15.9475 7.7282 15.6595 7.4042C15.3835 7.0682 14.9635 6.9002 14.3995 6.9002C13.8475 6.9002 13.4035 7.0862 13.0675 7.4582C12.7435 7.8182 12.5815 8.2802 12.5815 8.8442V14.0462ZM28.2963 17.4662H26.2263V5.2802H28.2423V6.4682C28.4703 6.0722 28.8303 5.7422 29.3223 5.4782C29.8143 5.2142 30.3843 5.0822 31.0323 5.0822C32.2923 5.0822 33.2823 5.5142 34.0023 6.3782C34.7223 7.2302 35.0823 8.3222 35.0823 9.6542C35.0823 10.9862 34.7043 12.0902 33.9483 12.9662C33.1923 13.8302 32.1963 14.2622 30.9603 14.2622C30.3603 14.2622 29.8263 14.1482 29.3583 13.9202C28.8903 13.6922 28.5363 13.4042 28.2963 13.0562V17.4662ZM32.9943 9.6542C32.9943 8.8382 32.7783 8.1842 32.3463 7.6922C31.9143 7.1882 31.3443 6.9362 30.6363 6.9362C29.9403 6.9362 29.3703 7.1882 28.9263 7.6922C28.4943 8.1842 28.2783 8.8382 28.2783 9.6542C28.2783 10.4822 28.4943 11.1482 28.9263 11.6522C29.3703 12.1562 29.9403 12.4082 30.6363 12.4082C31.3323 12.4082 31.8963 12.1562 32.3283 11.6522C32.7723 11.1482 32.9943 10.4822 32.9943 9.6542ZM39.1776 14.0462H37.0896V1.0142H39.1776V14.0462ZM43.9769 11.7062C44.4569 12.1982 45.0389 12.4442 45.7229 12.4442C46.4069 12.4442 46.9829 12.1982 47.4509 11.7062C47.9309 11.2142 48.1709 10.5302 48.1709 9.6542C48.1709 8.7902 47.9309 8.1182 47.4509 7.6382C46.9829 7.1462 46.4069 6.9002 45.7229 6.9002C45.0389 6.9002 44.4569 7.1462 43.9769 7.6382C43.5089 8.1182 43.2749 8.7902 43.2749 9.6542C43.2749 10.5182 43.5089 11.2022 43.9769 11.7062ZM45.7229 5.0102C47.0429 5.0102 48.1289 5.4482 48.9809 6.3242C49.8449 7.2002 50.2769 8.3102 50.2769 9.6542C50.2769 10.9982 49.8449 12.1142 48.9809 13.0022C48.1289 13.8782 47.0429 14.3162 45.7229 14.3162C44.4149 14.3162 43.3289 13.8782 42.4649 13.0022C41.6129 12.1142 41.1869 10.9982 41.1869 9.6542C41.1869 8.3102 41.6129 7.2002 42.4649 6.3242C43.3289 5.4482 44.4149 5.0102 45.7229 5.0102ZM54.5544 17.5922H52.3224L54.4284 13.0022L50.6844 5.2802H53.0424L55.5624 10.8242L57.9204 5.2802H60.1344L54.5544 17.5922ZM62.7175 8.7002H67.0195C66.9955 8.1482 66.7975 7.6862 66.4255 7.3142C66.0655 6.9422 65.5435 6.7562 64.8595 6.7562C64.2355 6.7562 63.7315 6.9542 63.3475 7.3502C62.9635 7.7342 62.7535 8.1842 62.7175 8.7002ZM67.2535 10.9862L69.0175 11.5442C68.7655 12.3482 68.2915 13.0142 67.5955 13.5422C66.9115 14.0582 66.0655 14.3162 65.0575 14.3162C63.8095 14.3162 62.7475 13.8902 61.8715 13.0382C61.0075 12.1862 60.5755 11.0462 60.5755 9.6182C60.5755 8.2742 60.9955 7.1702 61.8355 6.3062C62.6875 5.4422 63.6895 5.0102 64.8415 5.0102C66.1855 5.0102 67.2355 5.4242 67.9915 6.2522C68.7475 7.0682 69.1255 8.1722 69.1255 9.5642C69.1255 9.9362 69.1075 10.1582 69.0715 10.2302H62.6635C62.6875 10.8902 62.9275 11.4362 63.3835 11.8682C63.8515 12.3002 64.4095 12.5162 65.0575 12.5162C66.1855 12.5162 66.9175 12.0062 67.2535 10.9862ZM72.5789 8.7002H76.8809C76.8569 8.1482 76.6589 7.6862 76.2869 7.3142C75.9269 6.9422 75.4049 6.7562 74.7209 6.7562C74.0969 6.7562 73.5929 6.9542 73.2089 7.3502C72.8249 7.7342 72.6149 8.1842 72.5789 8.7002ZM77.1149 10.9862L78.8789 11.5442C78.6269 12.3482 78.1529 13.0142 77.4569 13.5422C76.7729 14.0582 75.9269 14.3162 74.9189 14.3162C73.6709 14.3162 72.6089 13.8902 71.7329 13.0382C70.8689 12.1862 70.4369 11.0462 70.4369 9.6182C70.4369 8.2742 70.8569 7.1702 71.6969 6.3062C72.5489 5.4422 73.5509 5.0102 74.7029 5.0102C76.0469 5.0102 77.0969 5.4242 77.8529 6.2522C78.6089 7.0682 78.9869 8.1722 78.9869 9.5642C78.9869 9.9362 78.9689 10.1582 78.9329 10.2302H72.5249C72.5489 10.8902 72.7889 11.4362 73.2449 11.8682C73.7129 12.3002 74.2709 12.5162 74.9189 12.5162C76.0469 12.5162 76.7789 12.0062 77.1149 10.9862ZM87.787 12.0662H90.055C91.231 12.0662 92.197 11.6942 92.953 10.9502C93.721 10.1942 94.105 9.1082 94.105 7.6922C94.105 6.2642 93.727 5.1722 92.971 4.4162C92.215 3.6482 91.249 3.2642 90.073 3.2642H87.787V12.0662ZM90.127 14.0462H85.627V1.2842H90.145C91.945 1.2842 93.427 1.8542 94.591 2.9942C95.767 4.1342 96.355 5.7002 96.355 7.6922C96.355 9.6722 95.767 11.2262 94.591 12.3542C93.415 13.4822 91.927 14.0462 90.127 14.0462ZM100.507 14.0462H98.4373V5.2802H100.507V14.0462ZM98.5093 3.1562C98.2453 2.8922 98.1133 2.5742 98.1133 2.2022C98.1133 1.8302 98.2453 1.5122 98.5093 1.2482C98.7733 0.972203 99.0913 0.834203 99.4633 0.834203C99.8473 0.834203 100.171 0.966203 100.435 1.2302C100.699 1.4942 100.831 1.8182 100.831 2.2022C100.831 2.5742 100.699 2.8922 100.435 3.1562C100.171 3.4202 99.8473 3.5522 99.4633 3.5522C99.0913 3.5522 98.7733 3.4202 98.5093 3.1562ZM108.331 5.2262V7.3502C108.091 7.3142 107.863 7.2962 107.647 7.2962C106.075 7.2962 105.289 8.1542 105.289 9.8702V14.0462H103.201V5.2802H105.235V6.6842C105.439 6.2162 105.769 5.8502 106.225 5.5862C106.681 5.3102 107.197 5.1722 107.773 5.1722C107.965 5.1722 108.151 5.1902 108.331 5.2262ZM111.444 8.7002H115.746C115.722 8.1482 115.524 7.6862 115.152 7.3142C114.792 6.9422 114.27 6.7562 113.586 6.7562C112.962 6.7562 112.458 6.9542 112.074 7.3502C111.69 7.7342 111.48 8.1842 111.444 8.7002ZM115.98 10.9862L117.744 11.5442C117.492 12.3482 117.018 13.0142 116.322 13.5422C115.638 14.0582 114.792 14.3162 113.784 14.3162C112.536 14.3162 111.474 13.8902 110.598 13.0382C109.734 12.1862 109.302 11.0462 109.302 9.6182C109.302 8.2742 109.722 7.1702 110.562 6.3062C111.414 5.4422 112.416 5.0102 113.568 5.0102C114.912 5.0102 115.962 5.4242 116.718 6.2522C117.474 7.0682 117.852 8.1722 117.852 9.5642C117.852 9.9362 117.834 10.1582 117.798 10.2302H111.39C111.414 10.8902 111.654 11.4362 112.11 11.8682C112.578 12.3002 113.136 12.5162 113.784 12.5162C114.912 12.5162 115.644 12.0062 115.98 10.9862ZM123.663 6.9362C122.991 6.9362 122.421 7.1822 121.953 7.6742C121.485 8.1542 121.251 8.8142 121.251 9.6542C121.251 10.5062 121.485 11.1782 121.953 11.6702C122.433 12.1622 123.015 12.4082 123.699 12.4082C124.311 12.4082 124.797 12.2462 125.157 11.9222C125.529 11.5862 125.775 11.2082 125.895 10.7882L127.731 11.4542C127.491 12.2342 127.023 12.9062 126.327 13.4702C125.643 14.0342 124.767 14.3162 123.699 14.3162C122.415 14.3162 121.335 13.8722 120.459 12.9842C119.595 12.0962 119.163 10.9862 119.163 9.6542C119.163 8.3102 119.589 7.2002 120.441 6.3242C121.305 5.4482 122.373 5.0102 123.645 5.0102C124.737 5.0102 125.625 5.2922 126.309 5.8562C127.005 6.4202 127.455 7.0982 127.659 7.8902L125.787 8.5742C125.667 8.1182 125.433 7.7342 125.085 7.4222C124.749 7.0982 124.275 6.9362 123.663 6.9362ZM132.232 2.5982V5.2802H134.05V7.1342H132.232V11.2022C132.232 11.5862 132.322 11.8682 132.502 12.0482C132.682 12.2162 132.964 12.3002 133.348 12.3002C133.588 12.3002 133.828 12.2762 134.068 12.2282V13.9562C133.756 14.0882 133.33 14.1542 132.79 14.1542C131.974 14.1542 131.332 13.9262 130.864 13.4702C130.396 13.0022 130.162 12.3602 130.162 11.5442V7.1342H128.542V5.2802H128.992C129.436 5.2802 129.772 5.1542 130 4.9022C130.228 4.6502 130.342 4.3202 130.342 3.9122V2.5982H132.232ZM138.213 11.7062C138.693 12.1982 139.275 12.4442 139.959 12.4442C140.643 12.4442 141.219 12.1982 141.687 11.7062C142.167 11.2142 142.407 10.5302 142.407 9.6542C142.407 8.7902 142.167 8.1182 141.687 7.6382C141.219 7.1462 140.643 6.9002 139.959 6.9002C139.275 6.9002 138.693 7.1462 138.213 7.6382C137.745 8.1182 137.511 8.7902 137.511 9.6542C137.511 10.5182 137.745 11.2022 138.213 11.7062ZM139.959 5.0102C141.279 5.0102 142.365 5.4482 143.217 6.3242C144.081 7.2002 144.513 8.3102 144.513 9.6542C144.513 10.9982 144.081 12.1142 143.217 13.0022C142.365 13.8782 141.279 14.3162 139.959 14.3162C138.651 14.3162 137.565 13.8782 136.701 13.0022C135.849 12.1142 135.423 10.9982 135.423 9.6542C135.423 8.3102 135.849 7.2002 136.701 6.3242C137.565 5.4482 138.651 5.0102 139.959 5.0102ZM151.661 5.2262V7.3502C151.421 7.3142 151.193 7.2962 150.977 7.2962C149.405 7.2962 148.619 8.1542 148.619 9.8702V14.0462H146.531V5.2802H148.565V6.6842C148.769 6.2162 149.099 5.8502 149.555 5.5862C150.011 5.3102 150.527 5.1722 151.103 5.1722C151.295 5.1722 151.481 5.1902 151.661 5.2262ZM156.384 17.5922H154.152L156.258 13.0022L152.514 5.2802H154.872L157.392 10.8242L159.75 5.2802H161.964L156.384 17.5922Z" fill="#091E42"/>
</svg>
